<svg id="Capa_1" enable-background="new 0 0 512 512" height="512" viewBox="0 0 512 512" width="512" xmlns="http://www.w3.org/2000/svg"><g><path d="m129.078 275.944h.087c15.027 0 33.734-13.212 55.387-28.505 23.615-16.68 50.383-35.586 71.448-35.586 16.125 0 35.206 11.133 50.029 20.832 3.471 2.271 8.129 1.299 10.402-2.173 2.273-3.473 1.299-8.13-2.173-10.402-16.568-10.842-38.162-23.286-58.258-23.286-25.839 0-54.676 20.369-80.119 38.34-17.926 12.66-36.46 25.751-46.711 25.751-.013 0-.027 0-.04 0-2.559-.009-8.172-4.299-13.149-16.085-5.058-11.979-7.467-26.785-6.611-40.62.685-11.057 3.815-26.631 14.843-38.04 12.672-13.11 36.93-22.995 70.153-28.588 26.961-4.538 52.084-5.028 61.634-5.028s34.673.49 61.635 5.028c33.222 5.593 57.48 15.478 70.152 28.588 11.028 11.409 14.159 26.983 14.843 38.04.856 13.836-1.553 28.641-6.611 40.62-4.977 11.786-10.59 16.076-13.149 16.085-.014 0-.027 0-.041 0-10.194 0-28.735-13.074-43.636-23.581-3.392-2.394-8.082-1.58-10.472 1.81-2.392 3.392-1.581 8.08 1.81 10.472 21.858 15.414 38.412 26.329 52.298 26.329h.091c10.357-.034 20.177-9.245 26.943-25.269 5.931-14.046 8.761-31.32 7.766-47.394-1.206-19.475-7.79-35.92-19.038-47.557-15.132-15.657-41.531-26.747-78.464-32.964-28.079-4.726-54.202-5.237-64.129-5.237s-36.05.511-64.129 5.237c-36.933 6.217-63.331 17.307-78.464 32.963-11.249 11.638-17.833 28.083-19.038 47.558-.995 16.074 1.836 33.348 7.766 47.394 6.768 16.024 16.588 25.234 26.945 25.268z"/><path d="m256 482.53c34.348 0 62.293-27.944 62.293-62.293 0-34.348-27.944-62.293-62.293-62.293s-62.293 27.944-62.293 62.293 27.945 62.293 62.293 62.293zm0-109.555c26.061 0 47.263 21.202 47.263 47.263s-21.202 47.263-47.263 47.263-47.263-21.203-47.263-47.263c0-26.061 21.202-47.263 47.263-47.263z"/><ellipse cx="256" cy="394.717" rx="11.802" ry="11.802" transform="matrix(.973 -.23 .23 .973 -83.839 69.376)"/><ellipse cx="256" cy="445.757" rx="11.802" ry="11.802" transform="matrix(.973 -.23 .23 .973 -95.566 70.741)"/><path d="m281.52 432.04c6.509 0 11.803-5.294 11.803-11.802 0-6.509-5.294-11.803-11.803-11.803-6.508 0-11.802 5.295-11.802 11.803-.001 6.508 5.294 11.802 11.802 11.802z"/><path d="m230.48 432.04c6.508 0 11.802-5.294 11.802-11.802 0-6.509-5.294-11.803-11.802-11.803-6.509 0-11.803 5.295-11.803 11.803s5.295 11.802 11.803 11.802z"/><path d="m491.471 388.807c-1.284-5.233-4.83-9.52-9.727-11.764l-26.263-12.031c-6.761-3.095-14.556-1.6-19.689 3.552l-29.776-23.115c4.938-13.813 9.26-28.719 12.96-44.688 4.937-3.928 9.511-8.776 13.64-14.551 22.129-30.96 27.857-83.636 13.618-125.252-3.578-10.457-9.179-19.84-16.773-28.151-8.252-45.451-30.562-80.286-66.357-103.548-29.036-18.868-67.072-29.259-107.104-29.259-25.522 0-63.366 4.194-98.718 24.173-3.612 2.042-4.886 6.626-2.844 10.24 2.041 3.612 6.625 4.887 10.24 2.844 32.506-18.372 67.603-22.228 91.322-22.228 37.16 0 72.288 9.529 98.914 26.832 27.093 17.607 45.615 42.72 55.266 74.819-32.395-21.019-83.943-31.627-154.18-31.627-70.212 0-121.748 10.6-154.145 31.604 7.66-25.381 20.896-46.496 39.552-62.921 3.114-2.742 3.417-7.49.674-10.606-2.743-3.114-7.492-3.417-10.606-.674-25.705 22.63-42.159 53.023-48.942 90.357-7.592 8.309-13.191 17.69-16.767 28.145-14.239 41.615-8.511 94.292 13.618 125.252 4.129 5.776 8.703 10.624 13.64 14.551 3.7 15.969 8.021 30.875 12.96 44.688l-29.776 23.115c-5.133-5.152-12.928-6.648-19.691-3.551l-26.26 12.03c-4.898 2.244-8.444 6.531-9.728 11.764-1.284 5.232-.125 10.674 3.178 14.93l55.904 72.012c3.303 4.255 8.289 6.727 13.676 6.781.06 0 .118.001.178.001 5.32 0 10.279-2.366 13.628-6.508l18.165-22.459c4.678-5.783 5.163-13.706 1.444-19.955l19.128-14.849c6.389 7.733 13.207 14.646 20.446 20.734 8.873 41.383 45.73 72.506 89.724 72.506s80.851-31.123 89.723-72.506c7.24-6.088 14.058-13.001 20.446-20.734l19.128 14.849c-3.719 6.249-3.235 14.172 1.444 19.955l18.164 22.458c3.35 4.143 8.309 6.509 13.629 6.509.059 0 .119-.001.178-.001 5.388-.054 10.373-2.525 13.677-6.781l55.902-72.012c3.305-4.256 4.463-9.698 3.18-14.93zm-411.486-222.984c8.397-24.544 31.509-42.5 68.693-53.37 28.079-8.208 64.187-12.371 107.322-12.371s79.243 4.162 107.322 12.371c37.184 10.87 60.296 28.826 68.693 53.37 12.581 36.774 7.583 84.772-11.626 111.647-6.603 9.237-18.048 20.249-35.079 20.249-23.758 0-44.341-17.355-64.245-34.139-19.973-16.842-40.626-34.256-65.065-34.256-24.438 0-45.092 17.415-65.065 34.256-19.904 16.784-40.486 34.139-64.245 34.139-17.031 0-28.477-11.012-35.079-20.249-19.209-26.875-24.207-74.873-11.626-111.647zm33.589 278.289-18.166 22.46c-.662.82-1.498.93-1.972.93-.452-.005-1.307-.137-1.953-.969l-55.904-72.013c-.646-.832-.562-1.693-.454-2.132.109-.439.432-1.242 1.391-1.681l26.259-12.029c.339-.156.696-.23 1.048-.23.754 0 1.487.342 1.976.971l47.806 61.581c.001.001.001.001.001.001.716.923.703 2.202-.032 3.111zm4.031-22.469-32.061-41.301 26.072-20.239c7.269 17.576 15.657 33.145 25.126 46.684zm230.093-4.661c-1.721-49.096-42.191-88.507-91.698-88.507-18.166 0-35.732 5.301-50.796 15.332-3.455 2.3-4.39 6.966-2.091 10.42 2.3 3.454 6.967 4.391 10.42 2.091 12.59-8.383 27.275-12.813 42.468-12.813 42.31 0 76.733 34.423 76.733 76.734 0 42.31-34.423 76.733-76.733 76.733s-76.733-34.423-76.733-76.733c0-16.253 5.015-31.781 14.503-44.904 2.431-3.364 1.676-8.062-1.687-10.493-3.365-2.43-8.061-1.676-10.493 1.687-10.716 14.823-16.657 32.204-17.289 50.453-23.304-24.629-41.214-60.365-53.425-106.633 5.053 1.578 10.336 2.4 15.815 2.4 29.25 0 51.966-19.155 73.933-37.678 18.733-15.796 36.428-30.717 55.376-30.717s36.643 14.921 55.376 30.717c21.968 18.523 44.684 37.678 73.934 37.678 5.479 0 10.762-.822 15.815-2.4-12.213 46.267-30.123 82.004-53.428 106.633zm52.686-56.878 26.072 20.239-32.061 41.301-19.136-14.856c9.469-13.539 17.857-29.108 25.125-46.684zm76.036 34.417-55.902 72.011c-.647.833-1.502.965-1.954.97-.485-.003-1.309-.11-1.973-.931l-18.165-22.459c-.735-.909-.747-2.188-.031-3.111 0 0 0 0 .001-.001l47.804-61.581c.489-.629 1.223-.972 1.977-.972.352 0 .708.074 1.046.229l26.262 12.03c.958.439 1.282 1.242 1.39 1.681.107.44.191 1.301-.455 2.134z"/></g></svg>